<mxfile host="app.diagrams.net" modified="2021-10-08T04:22:45.637Z" agent="5.0 (Windows NT 10.0; Win64; x64) AppleWebKit/537.36 (KHTML, like Gecko) Chrome/94.0.4606.71 Safari/537.36" etag="KcYe-9VPPLp9Pg_HRk_X" version="15.4.1" type="github">
  <diagram id="hlLD3kXGsrbP00aM4ERo" name="Page-1">
    <mxGraphModel dx="782" dy="436" grid="1" gridSize="10" guides="1" tooltips="1" connect="1" arrows="1" fold="1" page="1" pageScale="1" pageWidth="850" pageHeight="1100" math="0" shadow="0">
      <root>
        <mxCell id="0" />
        <mxCell id="1" parent="0" />
        <mxCell id="_yWuBCv0ekEh6ZADHoCv-3" value="" style="edgeStyle=orthogonalEdgeStyle;rounded=0;orthogonalLoop=1;jettySize=auto;html=1;" edge="1" parent="1" source="_yWuBCv0ekEh6ZADHoCv-1" target="_yWuBCv0ekEh6ZADHoCv-2">
          <mxGeometry relative="1" as="geometry" />
        </mxCell>
        <mxCell id="_yWuBCv0ekEh6ZADHoCv-1" value="索賠者打電話給經紀人" style="rounded=0;whiteSpace=wrap;html=1;" vertex="1" parent="1">
          <mxGeometry x="40" y="40" width="80" height="60" as="geometry" />
        </mxCell>
        <mxCell id="_yWuBCv0ekEh6ZADHoCv-5" value="" style="edgeStyle=orthogonalEdgeStyle;rounded=0;orthogonalLoop=1;jettySize=auto;html=1;" edge="1" parent="1" source="_yWuBCv0ekEh6ZADHoCv-2" target="_yWuBCv0ekEh6ZADHoCv-4">
          <mxGeometry relative="1" as="geometry" />
        </mxCell>
        <mxCell id="_yWuBCv0ekEh6ZADHoCv-2" value="經紀人通知保險公司" style="whiteSpace=wrap;html=1;rounded=0;" vertex="1" parent="1">
          <mxGeometry x="160" y="40" width="80" height="60" as="geometry" />
        </mxCell>
        <mxCell id="_yWuBCv0ekEh6ZADHoCv-8" value="" style="edgeStyle=orthogonalEdgeStyle;rounded=0;orthogonalLoop=1;jettySize=auto;html=1;" edge="1" parent="1" source="_yWuBCv0ekEh6ZADHoCv-4" target="_yWuBCv0ekEh6ZADHoCv-7">
          <mxGeometry relative="1" as="geometry" />
        </mxCell>
        <mxCell id="_yWuBCv0ekEh6ZADHoCv-4" value="把通知輸入電腦" style="whiteSpace=wrap;html=1;rounded=0;" vertex="1" parent="1">
          <mxGeometry x="280" y="40" width="80" height="60" as="geometry" />
        </mxCell>
        <mxCell id="_yWuBCv0ekEh6ZADHoCv-7" value="主管指派處理索賠代表" style="whiteSpace=wrap;html=1;rounded=0;" vertex="1" parent="1">
          <mxGeometry x="400" y="40" width="80" height="60" as="geometry" />
        </mxCell>
        <mxCell id="_yWuBCv0ekEh6ZADHoCv-12" value="3天" style="ellipse;whiteSpace=wrap;html=1;aspect=fixed;" vertex="1" parent="1">
          <mxGeometry x="520" y="30" width="80" height="80" as="geometry" />
        </mxCell>
      </root>
    </mxGraphModel>
  </diagram>
</mxfile>
